<?xml version="1.0" encoding="utf-8"?>
<svg xmlns="http://www.w3.org/2000/svg" height="32" width="32" viewBox="0 0 32 32">
  <g>
    <path id="path1" transform="rotate(0,16,16) translate(6,8.44406223297119) scale(0.625,0.625)  " fill="#22315B" d="M20.325989,20.175002L21.371002,20.175002 21.371002,21.219009 20.325989,21.219009z M5.7469788,17.820006L15.588989,17.820006 15.588989,19.654998 5.7469788,19.654998z M20.824982,15.710998C21.424988,15.710998 21.901978,15.869002 22.255981,16.182006 22.609985,16.496001 22.787994,16.861999 22.787994,17.277999 22.787994,17.50801 22.721985,17.725997 22.59198,17.930999 22.462006,18.138 22.18399,18.417998 21.756989,18.772002 21.536987,18.956008 21.399994,19.103011 21.346985,19.214004 21.294006,19.326003 21.268982,19.527007 21.273987,19.813003L20.325989,19.813003C20.324005,19.678008 20.321991,19.594009 20.321991,19.565002 20.321991,19.256011 20.375,19.003997 20.475006,18.805999 20.575989,18.609008 20.779999,18.384002 21.084991,18.136001 21.388977,17.889007 21.570984,17.725997 21.631989,17.648009 21.722992,17.527007 21.769989,17.391997 21.769989,17.248 21.769989,17.044006 21.687988,16.87001 21.524994,16.725005 21.363007,16.581008 21.143982,16.50801 20.868988,16.50801 20.604004,16.50801 20.381989,16.582 20.203003,16.735 20.024994,16.888 19.901978,17.116012 19.835999,17.425002L18.876984,17.307998C18.903992,16.863006 19.092987,16.486999 19.442993,16.178008 19.794006,15.867004 20.255005,15.710998 20.824982,15.710998z M20.325989,12.25801L21.371002,12.25801 21.371002,13.301009 20.325989,13.301009z M5.7469788,9.9010001L15.589996,9.9010001 15.589996,11.736999 5.7469788,11.736999z M20.824005,7.794006C21.424988,7.794006 21.901978,7.9510037 22.256989,8.2640067 22.609985,8.5780021 22.787994,8.9450065 22.787994,9.3599998 22.787994,9.5900108 22.721985,9.8090049 22.59198,10.013 22.462006,10.22 22.18399,10.501006 21.756989,10.854003 21.537994,11.039001 21.401001,11.186004 21.346985,11.296004 21.294006,11.408004 21.269989,11.609008 21.274994,11.895003L20.326996,11.895003C20.324982,11.760009 20.324005,11.676009 20.324005,11.647002 20.324005,11.340011 20.375,11.087005 20.475006,10.889007 20.576996,10.691009 20.778992,10.466003 21.083984,10.219009 21.388977,9.9710075 21.572998,9.8090049 21.631989,9.732009 21.722992,9.6090079 21.769989,9.4750053 21.769989,9.3310081 21.769989,9.1260062 21.687988,8.9530021 21.524994,8.8079978 21.363983,8.6640006 21.143982,8.5900108 20.868988,8.5900108 20.602997,8.5900108 20.380981,8.6650077 20.203979,8.8180076 20.026978,8.9700004 19.901978,9.1979972 19.835999,9.5070029L18.876984,9.3899985C18.903992,8.9459983 19.092987,8.5700065 19.442993,8.2610007 19.794006,7.9490048 20.255005,7.794006 20.824005,7.794006z M7.3240051,3.5330044C7.039978,3.5330044 6.8089905,3.7640072 6.8089905,4.0490109 6.8089905,4.3339993 7.039978,4.5640103 7.3240051,4.5640103 7.6089783,4.5640103 7.8389893,4.3339993 7.8389893,4.0490109 7.8389893,3.7640072 7.6089783,3.5330044 7.3240051,3.5330044z M5.0429993,3.5330044C4.7579956,3.5330044 4.5279846,3.7640072 4.5279846,4.0490109 4.5279846,4.3339993 4.7579956,4.5640103 5.0429993,4.5640103 5.3269958,4.5640103 5.5570068,4.3339993 5.5570068,4.0490109 5.5570068,3.7640072 5.3269958,3.5330044 5.0429993,3.5330044z M2.7609863,3.5330044C2.4759827,3.5330044 2.2460022,3.7640072 2.2460022,4.0490109 2.2460022,4.3339993 2.4759827,4.5640103 2.7609863,4.5640103 3.0449829,4.5640103 3.2769775,4.3339993 3.2769775,4.0490109 3.2769775,3.7640072 3.0449829,3.5330044 2.7609863,3.5330044z M27.130981,1.9540095L27.130981,6.0630032 29.84198,4.0080105z M0.88400269,1.8780055L23.28299,1.8780055C22.972992,2.5400082 22.787994,3.271011 22.787994,4.0480038 22.787994,4.6850124 22.917999,5.2890011 23.130981,5.8530117L0.87597656,5.8530117 0.87597656,22.901C0.87597656,23.214004,1.1309814,23.469009,1.4429932,23.469009L27.091003,23.469009C27.402985,23.469009,27.65799,23.214004,27.65799,22.901L27.65799,9.182006C27.756989,9.1890098 27.850983,9.2130118 27.950989,9.2130118 28.149994,9.2130118 28.339996,9.1750022 28.53299,9.152999L28.53299,23.296004C28.53299,23.783004,28.138,24.179,27.649994,24.179L0.88400269,24.179C0.39700317,24.179,0,23.783004,0,23.296004L0,2.7610012C0,2.2730101,0.39700317,1.8780057,0.88400269,1.8780055z M27.950989,0C30.186981,-1.078306E-07 32,1.8130033 32,4.0480038 32,6.2850033 30.186981,8.0969993 27.950989,8.0969993 25.716003,8.0969993 23.902985,6.2850033 23.902985,4.0480038 23.902985,1.8130033 25.716003,-1.078306E-07 27.950989,0z" />
  </g>
</svg>

